<svg xmlns="http://www.w3.org/2000/svg" width="24" height="24" viewBox="0 0 24 24" fill="none" stroke="white" stroke-width="2" stroke-linecap="round" stroke-linejoin="round" class="lucide lucide-monster-icon lucide-monster"><path d="M4 8c0-2 1-4 3-5"/><path d="M20 8c0-2-1-4-3-5"/><path d="M5 9c-1.5 1-3 3-3 6 0 4 3.5 7 10 7s10-3 10-7c0-3-1.5-5-3-6"/><circle cx="8" cy="12" r="1.5"/><circle cx="16" cy="12" r="1.5"/><path d="M9 17c1 1 2.5 1.5 3 1.5s2-.5 3-1.5"/><path d="M10 17v1"/><path d="M14 17v1"/><path d="M12 17v1.5"/><path d="M6 9c-.5-.5-1-1.5-1-2.5"/><path d="M18 9c.5-.5 1-1.5 1-2.5"/></svg>
